<svg xmlns="http://www.w3.org/2000/svg" version="1.1" xmlns:xlink="http://www.w3.org/1999/xlink" xmlns:svgjs="http://svgjs.dev/svgjs" width="1000" height="1000" viewBox="0 0 1000 1000"><g transform="matrix(1,0,0,1,0,0)"><svg viewBox="0 0 280 280" data-background-color="#ffffff" preserveAspectRatio="xMidYMid meet" height="1000" width="1000" xmlns="http://www.w3.org/2000/svg" xmlns:xlink="http://www.w3.org/1999/xlink"><g id="tight-bounds" transform="matrix(1,0,0,1,0,0)"><svg viewBox="0 0 280 280" height="280" width="280"><g><svg viewBox="0 0 280 280" height="280" width="280"><g><svg viewBox="0 0 280 280" height="280" width="280"><g id="textblocktransform"><svg viewBox="0 0 280 280" height="280" width="280" id="textblock"><g><svg viewBox="0 0 280 280" height="280" width="280"><g transform="matrix(1,0,0,1,99.61992578058496,90.50252531694167)"><svg viewBox="0 0 80.76014843883006 98.99494936611666" height="98.99494936611666" width="80.76014843883006"><g><svg xmlns="http://www.w3.org/2000/svg" xmlns:xlink="http://www.w3.org/1999/xlink" version="1.1" x="0" y="0" viewBox="24.125999450683594 18.963003158569336 51.45500183105469 63.07300567626953" enable-background="new 0 0 100 100" xml:space="preserve" height="98.99494936611666" width="80.76014843883006" class="icon-o-0" data-fill-palette-color="accent" id="o-0"><g fill="#ffffff" data-fill-palette-color="accent"><path d="M57.161 63.662c0.918 0 1.662-0.662 1.662-1.662h-3.325C55.498 63 56.243 63.662 57.161 63.662z" fill="#ffffff" data-fill-palette-color="accent"></path><circle cx="42.546" cy="62.194" r="1.7" fill="#ffffff" data-fill-palette-color="accent"></circle><rect x="48" y="74" width="4" height="2" fill="#ffffff" data-fill-palette-color="accent"></rect><path d="M69.733 67.862l5.848-1.795L69.921 67c0.643-2 1.068-3.977 1.068-6.203 0-3.232-0.988-6.101-1.988-8.841V36.507c0-0.861 0.89-1.679 1.319-2.424 1.632-2.837 2.133-3.778 2.254-4.059 0.567-1.311 0.562-2.533 0.02-3.633-1.425-2.891-6.45-4.153-11.302-5.373-1.479-0.372-2.882-0.724-4.148-1.111-0.338-0.104-0.684-0.156-1.022-0.156-0.182 0-0.356 0.04-0.532 0.069 1.978 0.613 3.849 1.608 5.138 3.121 0.023 0.006 0.044 0.011 0.066 0.017 4.205 1.058 8.971 2.257 9.986 4.318 0.175 0.355 0.357 0.945-0.077 1.949-0.116 0.252-1.078 1.925-2.192 3.861-0.496 0.863-1.049 1.823-1.63 2.838-0.188 0.112-0.37 0.213-0.556 0.321-0.911 0.475-1.806 0.818-2.675 1.261 0.415-1.989 1.035-4.757 1.035-4.757s-0.031 0.043-0.075 0.105c0.047-0.211 0.075-0.338 0.075-0.338S60.872 37.845 60.16 39h-0.127c0 0 0.015 0.082 0.039 0.102-0.834 0.316-1.681 0.692-2.55 0.928 1.162-2.981 2.356-5.814 3.267-7.973 1.479-3.504 1.648-3.952 1.648-4.356 0-1.983-0.667-3.537-1.71-4.76-1.289-1.513-3.162-2.508-5.14-3.121-1.986-0.615-4.066-0.857-5.734-0.857-1.669 0-3.748 0.242-5.735 0.857-0.176-0.028-0.349-0.069-0.531-0.069-0.338 0-0.682 0.053-1.02 0.156-1.266 0.387-2.664 0.739-4.143 1.111-4.852 1.22-9.868 2.482-11.292 5.373-0.542 1.1-0.529 2.322 0.038 3.633 0.122 0.281 0.733 1.223 2.366 4.063 0.428 0.744 0.463 1.56 1.463 2.42v15.449c-1 2.739-2.132 5.79-2.132 9.022 0 2.226 0.317 4.37 0.96 6.386l2.257 0.451-2.293-0.451-5.665-1.115 5.848 1.614c2.862 8.236 10.681 14.173 19.879 14.173S66.871 76.1 69.733 67.864l-2.384 0.658c-2.929 6.766-9.665 11.516-17.495 11.516-7.83 0-14.566-4.749-17.495-11.516l17.09 4.715 0.405 0.612 0.405-0.612-0.173 0.048 0.004-0.012 0.17-0.041 17.09-4.712L69.733 67.862zM67 38.26v13.454c-6 3.352-10.13 5.163-17.229 5.163C42.925 56.877 38 55.155 33 51.97V38.499c5 2.996 9.898 4.607 16.771 4.607C56.842 43.106 61 41.345 67 38.26zM51 41h0.218L51 41.006V41zM49.854 20.963c3.91 0 10.512 1.404 10.583 6.652-0.121 0.419-0.787 1.998-1.49 3.665-1.048 2.484-2.463 5.842-3.785 9.324-0.008 0.001-0.016 0.015-0.024 0.017C53.969 40.819 52.739 41 51.423 41h-0.004l-1.616-11.978L48.185 41h-0.007l0.004 0.024c-1.269-0.048-2.455-0.135-3.584-0.31-0.004-0.001-0.007-0.002-0.011-0.003-1.334-3.521-2.768-6.922-3.827-9.432-0.704-1.667-1.37-3.246-1.49-3.665C39.341 22.367 45.944 20.963 49.854 20.963zM29.015 29.229c-0.437-1.009-0.259-1.598-0.084-1.954 1.016-2.061 5.779-3.26 9.984-4.318 0.022-0.006 0.042-0.011 0.064-0.017-1.042 1.224-1.71 2.777-1.71 4.76 0 0.404 0.169 0.852 1.648 4.355 0.909 2.154 2.099 4.978 3.259 7.951-0.874-0.188-1.724-0.045-2.563-1.007h0.061l-4.653-6.483c0 0 0.666 3.183 1.079 5.199-0.995-0.489-2.007-0.925-3.056-1.526-0.017-0.01-0.029-0.016-0.045-0.025-0.633-1.103-1.248-2.145-1.783-3.074C30.101 31.152 29.129 29.477 29.015 29.229zM30.795 60.978c0-2.507 0.499-4.897 1.383-7.092 0 0 0 0 0 0 0 0 0-0.001 0-0.001 4.611 2.633 8.526 4.283 13.677 4.808 1.188 0.122 2.443 0.184 3.788 0.184 7.331 0 12.196-1.896 17.813-5.193 0.935 2.248 1.456 4.704 1.456 7.286 0 1.186-0.116 2.343-0.329 3.465-0.222 1.088-0.544 2.141-0.951 3.196l-0.01 0.093-15.801 3.154 0.812-1.292L52.978 69h0.056 0.119-0.086l0.38-0.573-0.171 0.123 0.171-0.257L52.467 69l-2.442 1.762 0.151-1.731L50.178 69l0.634-7h-2l0.633 7 0.003 0.037 0.148 1.663L47.24 69l-0.98-0.707 0.171 0.257-0.171-0.123L46.64 69h-0.087 0.119 0.057l0.345 0.588 0.846 1.31-15.836-3.099C31.264 65.673 30.795 63.39 30.795 60.978z" fill="#ffffff" data-fill-palette-color="accent"></path></g></svg></g></svg></g><g><path d="M31.78 95.007l-5.736 14.882-3.721-1.434-1.434 3.72-3.72-1.434-1.434 3.721-11.162-4.302 1.434-3.721-3.72-1.434 1.434-3.72-3.721-1.434 5.736-14.883 3.721 1.435 1.434-3.721 3.72 1.434-2.868 7.441-3.72-1.434-2.868 7.441 3.72 1.434-1.434 3.721 11.162 4.302 1.434-3.721 3.72 1.434 2.868-7.441-3.72-1.434 2.868-7.441 3.72 1.434-1.434 3.721z" fill="#ffffff" data-fill-palette-color="primary"></path><path d="M49.111 69.185l-5.514 5.762-20.165-19.297 5.513-5.762 8.643 8.27 8.27-8.642-8.642-8.27 5.513-5.762 20.166 19.297-5.514 5.762-8.642-8.27-8.27 8.642z" fill="#ffffff" data-fill-palette-color="primary"></path><path d="M104.355 32.542l-25.578 11.17-11.171-25.578 25.579-11.171 1.596 3.654-18.271 7.979 3.192 7.309 14.616-6.384 1.596 3.654-14.616 6.384 3.191 7.308 18.271-7.979z" fill="#ffffff" data-fill-palette-color="primary"></path><path d="M131.249 28.324l-7.974 0.126-0.442-27.907 27.908-0.443 0.063 3.987-19.934 0.316 0.126 7.974 15.948-0.253 0.063 3.987-15.948 0.253z" fill="#ffffff" data-fill-palette-color="primary"></path><path d="M218.047 58.034l-5.694-5.583 13.958-14.235 2.847 2.792 2.792-2.847 2.847 2.792 2.792-2.847 8.541 8.375-2.792 2.847 2.847 2.792-2.792 2.847 2.847 2.791-13.959 14.235-5.694-5.583 5.584-5.694-8.541-8.376zM232.005 43.8l-5.583 5.694 8.541 8.375 5.583-5.694-2.847-2.792 2.792-2.847-2.847-2.792-2.792 2.847z" fill="#ffffff" data-fill-palette-color="primary"></path><path d="M254.463 113.63l-9.656-21.888 3.648-1.61 3.219 7.296 18.24-8.047-3.219-7.296 3.648-1.609 9.657 21.888-3.648 1.61-3.219-7.297-18.24 8.048 3.218 7.296z" fill="#ffffff" data-fill-palette-color="primary"></path><path d="M21.493 208.413l-6.826-16.906 4.224-1.705-1.706-4.225 4.224-1.705-1.705-4.224 12.682-5.121 1.705 4.224 4.224-1.705 1.706 4.224 4.224-1.706 6.826 16.906-4.224 1.706 1.706 4.224-4.224 1.706-3.412-8.449 4.225-1.705-3.415-8.458-4.225 1.706-1.705-4.225-12.682 5.121 1.706 4.224-4.225 1.706 3.415 8.457 4.225-1.705 3.411 8.448-4.224 1.706-1.706-4.224z" fill="#ffffff" data-fill-palette-color="primary"></path><path d="M40.288 235.557l-6.364-6.521 22.829-22.28 6.363 6.521-9.78 9.545 9.552 9.788 9.781-9.546 6.364 6.521-22.829 22.28-6.363-6.521 9.787-9.552-9.552-9.788z" fill="#ffffff" data-fill-palette-color="primary"></path><path d="M101.64 275.612l-29.281-12.656 12.656-29.281 29.281 12.656-1.808 4.182-20.917-9.041-3.615 8.363 16.736 7.234-1.808 4.181-16.735-7.233-3.619 8.372 20.917 9.041z" fill="#ffffff" data-fill-palette-color="primary"></path><path d="M129.909 279.9l-9.11-0.165 0.578-31.894 31.894 0.578-0.083 4.555-22.784-0.413-0.165 9.11 18.229 0.33-0.082 4.555-18.229-0.33z" fill="#ffffff" data-fill-palette-color="primary"></path><path d="M224.828 248.458l-6.596 6.285-15.72-16.498 3.299-3.142-3.143-3.299 3.298-3.142-3.142-3.298 9.902-9.434 3.142 3.298 3.298-3.143 3.143 3.298 3.298-3.142 15.719 16.498-6.596 6.285-6.285-6.596-9.902 9.434zM209.109 231.96l6.285 6.596 9.901-9.434-6.284-6.596-3.299 3.142-3.142-3.298-3.305 3.149 3.142 3.299z" fill="#ffffff" data-fill-palette-color="primary"></path><path d="M266.095 187.948l-11.6 24.76-4.126-1.932 3.866-8.251-20.635-9.667-3.866 8.25-4.125-1.933 11.6-24.76 4.126 1.933-3.866 8.25 20.635 9.668 3.866-8.251z" fill="#ffffff" data-fill-palette-color="primary"></path><path d="M1.301 147.839c0-6.73 5.456-12.185 12.185-12.185 6.73 0 12.185 5.456 12.185 12.185 0 6.73-5.456 12.185-12.185 12.185-6.73 0-12.185-5.456-12.185-12.185z" fill="#ffffff" data-fill-palette-color="primary"></path><path d="M252.508 147.839c0-6.73 5.456-12.185 12.185-12.185 6.73 0 12.185 5.456 12.186 12.185 0 6.73-5.456 12.185-12.186 12.185-6.73 0-12.185-5.456-12.185-12.185z" fill="#ffffff" data-fill-palette-color="primary"></path></g></svg></g></svg></g></svg></g><g></g></svg></g><defs></defs></svg><rect width="280" height="280" fill="none" stroke="none" visibility="hidden"></rect></g></svg></g></svg>